<!DOCTYPE svg PUBLIC "-//W3C//DTD SVG 1.1//EN" "http://www.w3.org/Graphics/SVG/1.1/DTD/svg11.dtd">
<!-- Uploaded to: SVG Repo, www.svgrepo.com, Transformed by: SVG Repo Mixer Tools -->
<svg width="800px" height="800px" viewBox="0 0 24 24" fill="none" xmlns="http://www.w3.org/2000/svg">
<g id="SVGRepo_bgCarrier" stroke-width="0"/>
<g id="SVGRepo_tracerCarrier" stroke-linecap="round" stroke-linejoin="round"/>
<g id="SVGRepo_iconCarrier"> <path d="M6.11069 3.15205C6.43316 3.05136 6.76773 3 7.10456 3C8.72359 3 9.92309 4.42565 9.92308 6.03791L9.92308 9.65441C9.92308 11.2667 8.72358 12.6923 7.10456 12.6923C6.76772 12.6923 6.43316 12.641 6.11069 12.5403L5.86418 12.4633C5.78002 12.437 5.69721 12.4079 5.61584 12.376C6.9001 14.9841 9.01591 17.0999 11.624 18.3842C11.5921 18.3028 11.563 18.22 11.5367 18.1358L11.4597 17.8893C11.359 17.5668 11.3077 17.2323 11.3077 16.8954C11.3077 15.2764 12.7333 14.0769 14.3456 14.0769H17.9621C19.5743 14.0769 21 15.2764 21 16.8954C21 17.2323 20.9486 17.5668 20.8479 17.8893L20.771 18.1358C20.3226 19.5717 19.0401 20.6116 17.506 20.882C16.6128 21.0393 15.6949 21.0394 14.8017 20.882C14.7665 20.8758 14.7315 20.8692 14.6966 20.8622C8.84285 19.7359 4.26404 15.1571 3.13782 9.30329C3.13083 9.26843 3.12424 9.23344 3.11805 9.19831C2.96065 8.3051 2.96065 7.38721 3.11805 6.494C3.38837 4.95989 4.42827 3.67739 5.86419 3.22902L6.11069 3.15205Z" fill="#ffffff"/> <path d="M13.1128 4.59113C14.8866 4.08573 16.8181 4.50846 18.1548 5.84518C19.4916 7.1819 19.9143 9.11346 19.4089 10.8872C19.3041 11.255 19.5173 11.638 19.885 11.7428C20.2527 11.8475 20.6357 11.6344 20.7405 11.2667C21.3727 9.04776 20.8531 6.58533 19.1339 4.86611C17.4147 3.14689 14.9523 2.62729 12.7334 3.25951C12.3656 3.36428 12.1525 3.74731 12.2573 4.11503C12.362 4.48274 12.7451 4.6959 13.1128 4.59113Z" fill="#ffffff"/> <path d="M14.8462 7.10736C15.3133 7.01432 15.905 7.1712 16.3669 7.63309C16.8288 8.09498 16.9857 8.68667 16.8927 9.15381C16.818 9.52879 17.0614 9.89332 17.4364 9.96801C17.8114 10.0427 18.1759 9.79926 18.2506 9.42428C18.4416 8.46535 18.1065 7.41451 17.346 6.65402C16.5855 5.89353 15.5347 5.55843 14.5757 5.74942C14.2008 5.82411 13.9573 6.18864 14.032 6.56363C14.1067 6.93861 14.4712 7.18205 14.8462 7.10736Z" fill="#ffffff"/> </g>
</svg>