<!DOCTYPE svg PUBLIC "-//W3C//DTD SVG 1.1//EN" "http://www.w3.org/Graphics/SVG/1.1/DTD/svg11.dtd">
<!-- Uploaded to: SVG Repo, www.svgrepo.com, Transformed by: SVG Repo Mixer Tools -->
<svg width="800px" height="800px" viewBox="0 0 24 24" fill="none" xmlns="http://www.w3.org/2000/svg">
<g id="SVGRepo_bgCarrier" stroke-width="0"/>
<g id="SVGRepo_tracerCarrier" stroke-linecap="round" stroke-linejoin="round"/>
<g id="SVGRepo_iconCarrier"> <path fill-rule="evenodd" clip-rule="evenodd" d="M8.43056 3.44162C5.70602 4.04534 3.55805 6.13983 2.88539 8.84875C2.37154 10.9181 2.37154 13.0819 2.88539 15.1513C3.55805 17.8602 5.70601 19.9547 8.43056 20.5584L8.88443 20.659C10.9366 21.1137 13.0634 21.1137 15.1156 20.659L15.5694 20.5584C18.294 19.9547 20.442 17.8602 21.1146 15.1512C21.6285 13.0819 21.6285 10.9182 21.1146 8.84875C20.442 6.13984 18.294 4.04534 15.5694 3.44162L15.1156 3.34105C13.0634 2.88632 10.9366 2.88632 8.88443 3.34105L8.43056 3.44162ZM8.53466 9.81312C8.23813 9.60127 7.82605 9.66996 7.61424 9.96655C7.40244 10.2631 7.47112 10.6753 7.76765 10.8872L10.3382 12.7237C11.3323 13.4339 12.6678 13.4339 13.6619 12.7237L16.2324 10.8872C16.5289 10.6753 16.5976 10.2631 16.3858 9.96655C16.174 9.66996 15.7619 9.60127 15.4654 9.81312L12.8949 11.6496C12.3596 12.032 11.6405 12.032 11.1052 11.6496L8.53466 9.81312Z" fill="#ffffff"/> </g>
</svg>