<svg xmlns="http://www.w3.org/2000/svg" xmlns:xlink="http://www.w3.org/1999/xlink" width="1080" zoomAndPan="magnify" viewBox="0 0 810 809.999993" height="1080" preserveAspectRatio="xMidYMid meet" version="1.0"><defs><clipPath id="d94b6d443d"><path d="M 344 173.046875 L 466 173.046875 L 466 294 L 344 294 Z M 344 173.046875 " clip-rule="nonzero"/></clipPath></defs><path fill="#a3a3a3" d="M 405.632812 235.78125 C 404 235.78125 402.363281 235.792969 400.726562 235.8125 L 400.695312 233.304688 C 402.34375 233.28125 403.988281 233.273438 405.632812 233.273438 C 407.28125 233.273438 408.929688 233.28125 410.574219 233.304688 L 410.542969 235.8125 C 408.910156 235.792969 407.273438 235.78125 405.632812 235.78125 Z M 390.914062 236.054688 C 387.644531 236.171875 384.375 236.335938 381.109375 236.535156 L 380.953125 234.03125 C 384.238281 233.828125 387.53125 233.667969 390.820312 233.546875 Z M 430.160156 236.535156 C 426.894531 236.335938 423.628906 236.171875 420.355469 236.054688 L 420.449219 233.546875 C 423.742188 233.667969 427.027344 233.828125 430.3125 234.03125 Z M 449.71875 238.21875 C 446.46875 237.859375 443.210938 237.539062 439.949219 237.257812 L 440.164062 234.757812 C 443.449219 235.039062 446.722656 235.363281 449.996094 235.726562 Z M 371.320312 237.257812 C 368.058594 237.539062 364.804688 237.859375 361.550781 238.21875 L 361.277344 235.726562 C 364.546875 235.363281 367.824219 235.039062 371.105469 234.757812 Z M 469.171875 240.863281 C 465.941406 240.34375 462.703125 239.863281 459.460938 239.421875 L 459.800781 236.9375 C 463.0625 237.378906 466.320312 237.863281 469.570312 238.386719 Z M 351.808594 239.421875 C 348.566406 239.863281 345.332031 240.34375 342.101562 240.863281 L 341.703125 238.386719 C 344.953125 237.863281 348.207031 237.378906 351.472656 236.9375 Z M 488.472656 244.460938 C 485.269531 243.78125 482.058594 243.144531 478.84375 242.542969 L 479.300781 240.078125 C 482.539062 240.679688 485.769531 241.324219 488.992188 242.003906 Z M 332.429688 242.542969 C 329.210938 243.144531 326 243.78125 322.800781 244.460938 L 322.28125 242.003906 C 325.503906 241.324219 328.734375 240.679688 331.96875 240.078125 Z M 507.570312 249 C 504.40625 248.164062 501.234375 247.371094 498.046875 246.613281 L 498.628906 244.171875 C 501.832031 244.933594 505.023438 245.734375 508.207031 246.574219 Z M 313.222656 246.613281 C 310.039062 247.371094 306.863281 248.164062 303.699219 249 L 303.058594 246.574219 C 306.246094 245.734375 309.4375 244.933594 312.644531 244.171875 Z M 526.421875 254.472656 C 523.304688 253.484375 520.171875 252.53125 517.03125 251.621094 L 517.730469 249.210938 C 520.890625 250.128906 524.042969 251.082031 527.179688 252.078125 Z M 294.242188 251.621094 C 291.097656 252.53125 287.96875 253.484375 284.84375 254.472656 L 284.089844 252.078125 C 287.230469 251.082031 290.378906 250.128906 293.542969 249.210938 Z M 544.988281 260.863281 C 541.917969 259.722656 538.839844 258.617188 535.742188 257.554688 L 536.5625 255.179688 C 539.671875 256.25 542.773438 257.363281 545.863281 258.511719 Z M 275.523438 257.554688 C 272.433594 258.617188 269.351562 259.722656 266.285156 260.863281 L 265.410156 258.511719 C 268.5 257.363281 271.597656 256.25 274.710938 255.179688 Z M 558.691406 266.25 C 557.179688 265.625 555.664062 265.007812 554.144531 264.398438 L 555.078125 262.066406 C 556.605469 262.679688 558.128906 263.300781 559.652344 263.929688 C 561.171875 264.5625 562.691406 265.203125 564.203125 265.851562 L 563.214844 268.15625 C 561.710938 267.511719 560.203125 266.875 558.691406 266.25 Z M 257.125 264.398438 C 255.605469 265.007812 254.089844 265.625 252.578125 266.25 C 251.066406 266.875 249.558594 267.511719 248.054688 268.15625 L 247.066406 265.851562 C 248.582031 265.203125 250.097656 264.5625 251.621094 263.929688 C 253.140625 263.300781 254.667969 262.679688 256.195312 262.066406 Z M 581.0625 276.339844 C 578.125 274.902344 575.164062 273.503906 572.1875 272.136719 L 573.230469 269.855469 C 576.230469 271.230469 579.207031 272.636719 582.160156 274.082031 Z M 239.082031 272.136719 C 236.105469 273.503906 233.148438 274.902344 230.207031 276.339844 L 229.109375 274.082031 C 232.066406 272.636719 235.042969 271.230469 238.039062 269.855469 Z M 598.488281 285.386719 C 595.621094 283.808594 592.734375 282.261719 589.828125 280.753906 L 590.984375 278.527344 C 593.910156 280.046875 596.8125 281.597656 599.695312 283.1875 Z M 221.441406 280.753906 C 218.535156 282.261719 215.648438 283.808594 212.785156 285.386719 L 211.574219 283.1875 C 214.457031 281.597656 217.363281 280.046875 220.285156 278.527344 Z M 615.445312 295.277344 C 612.664062 293.5625 609.855469 291.878906 607.027344 290.226562 L 608.289062 288.058594 C 611.136719 289.71875 613.960938 291.414062 616.761719 293.140625 Z M 204.242188 290.226562 C 201.414062 291.878906 198.609375 293.5625 195.824219 295.277344 L 194.507812 293.140625 C 197.308594 291.414062 200.132812 289.71875 202.980469 288.058594 Z M 631.902344 305.992188 C 629.207031 304.140625 626.484375 302.320312 623.742188 300.535156 L 625.109375 298.429688 C 627.871094 300.226562 630.609375 302.058594 633.320312 303.921875 Z M 187.53125 300.535156 C 184.785156 302.320312 182.066406 304.140625 179.367188 305.992188 L 177.949219 303.921875 C 180.664062 302.058594 183.402344 300.226562 186.160156 298.429688 Z M 647.8125 317.5 C 645.210938 315.515625 642.582031 313.566406 639.929688 311.648438 L 641.398438 309.613281 C 644.066406 311.542969 646.710938 313.507812 649.332031 315.503906 Z M 171.34375 311.648438 C 168.691406 313.566406 166.0625 315.515625 163.457031 317.5 L 161.941406 315.503906 C 164.558594 313.507812 167.207031 311.542969 169.875 309.613281 Z M 663.140625 329.777344 C 660.636719 327.667969 658.105469 325.589844 655.554688 323.542969 L 657.117188 321.585938 C 659.6875 323.644531 662.234375 325.734375 664.753906 327.855469 Z M 155.71875 323.542969 C 153.164062 325.589844 150.636719 327.667969 148.132812 329.777344 L 146.515625 327.855469 C 149.039062 325.734375 151.582031 323.644531 154.152344 321.585938 Z M 677.84375 342.789062 C 675.449219 340.558594 673.023438 338.359375 670.574219 336.191406 L 672.234375 334.3125 C 674.699219 336.492188 677.136719 338.707031 679.550781 340.949219 Z M 140.699219 336.191406 C 138.25 338.359375 135.824219 340.558594 133.425781 342.789062 L 131.71875 340.949219 C 134.132812 338.707031 136.570312 336.492188 139.039062 334.3125 Z M 688.445312 353.015625 C 687.289062 351.855469 686.125 350.707031 684.953125 349.5625 L 686.707031 347.765625 C 687.886719 348.917969 689.054688 350.074219 690.21875 351.242188 C 691.382812 352.40625 692.542969 353.578125 693.691406 354.757812 L 691.894531 356.507812 C 690.753906 355.335938 689.601562 354.171875 688.445312 353.015625 Z M 126.316406 349.5625 C 125.144531 350.707031 123.980469 351.855469 122.824219 353.015625 C 121.667969 354.171875 120.515625 355.335938 119.375 356.507812 L 117.578125 354.757812 C 118.730469 353.578125 119.886719 352.40625 121.050781 351.242188 C 122.214844 350.074219 123.386719 348.917969 124.566406 347.765625 Z M 112.605469 363.625 C 110.378906 366.023438 108.179688 368.449219 106.015625 370.902344 L 104.136719 369.242188 C 106.316406 366.773438 108.527344 364.332031 110.769531 361.917969 Z M 705.257812 370.902344 C 703.089844 368.449219 700.890625 366.023438 698.664062 363.625 L 700.5 361.917969 C 702.746094 364.332031 704.953125 366.773438 707.136719 369.242188 Z M 717.894531 385.933594 C 715.851562 383.378906 713.777344 380.847656 711.667969 378.339844 L 713.585938 376.726562 C 715.707031 379.246094 717.796875 381.796875 719.855469 384.367188 Z M 99.601562 378.339844 C 97.496094 380.847656 95.417969 383.378906 93.375 385.933594 L 91.417969 384.367188 C 93.472656 381.796875 95.5625 379.246094 97.683594 376.726562 Z M 729.78125 401.570312 C 727.867188 398.917969 725.917969 396.285156 723.933594 393.679688 L 725.929688 392.160156 C 727.921875 394.78125 729.886719 397.429688 731.816406 400.101562 Z M 87.335938 393.679688 C 85.355469 396.285156 83.40625 398.917969 81.488281 401.570312 L 79.457031 400.101562 C 81.382812 397.429688 83.347656 394.78125 85.339844 392.160156 Z M 740.886719 417.769531 C 739.105469 415.023438 737.285156 412.300781 735.433594 409.601562 L 737.503906 408.183594 C 739.367188 410.898438 741.195312 413.640625 742.988281 416.402344 Z M 75.835938 409.601562 C 73.984375 412.300781 72.167969 415.023438 70.382812 417.769531 L 68.28125 416.402344 C 70.078125 413.640625 71.90625 410.898438 73.769531 408.183594 Z M 751.1875 434.496094 C 749.539062 431.664062 747.855469 428.855469 746.140625 426.070312 L 748.273438 424.75 C 750.003906 427.558594 751.695312 430.382812 753.351562 433.230469 Z M 65.132812 426.070312 C 63.414062 428.855469 61.734375 431.664062 60.085938 434.496094 L 57.917969 433.230469 C 59.578125 430.382812 61.269531 427.558594 62.996094 424.75 Z M 760.652344 451.707031 C 759.144531 448.796875 757.601562 445.910156 756.027344 443.042969 L 758.222656 441.832031 C 759.808594 444.71875 761.363281 447.625 762.878906 450.550781 Z M 55.246094 443.042969 C 53.667969 445.910156 52.125 448.796875 50.617188 451.707031 L 48.394531 450.550781 C 49.910156 447.625 51.460938 444.71875 53.050781 441.832031 Z M 769.261719 469.359375 C 767.898438 466.382812 766.5 463.421875 765.066406 460.480469 L 767.320312 459.378906 C 768.761719 462.339844 770.171875 465.320312 771.542969 468.316406 Z M 46.207031 460.480469 C 44.769531 463.421875 43.371094 466.382812 42.007812 469.359375 L 39.730469 468.316406 C 41.101562 465.320312 42.507812 462.339844 43.953125 459.378906 Z M 38.03125 478.339844 C 37.386719 479.847656 36.75 481.355469 36.125 482.867188 C 35.5 484.382812 34.882812 485.898438 34.273438 487.417969 L 31.945312 486.488281 C 32.558594 484.957031 33.175781 483.429688 33.808594 481.90625 C 34.4375 480.386719 35.078125 478.867188 35.726562 477.351562 Z M 775.144531 482.867188 C 774.519531 481.355469 773.882812 479.847656 773.238281 478.339844 L 775.542969 477.351562 C 776.195312 478.867188 776.832031 480.386719 777.460938 481.90625 C 778.09375 483.429688 778.714844 484.957031 779.324219 486.488281 L 776.996094 487.417969 C 776.390625 485.898438 775.773438 484.382812 775.144531 482.867188 Z M 30.742188 496.582031 C 29.601562 499.652344 28.5 502.738281 27.433594 505.832031 L 25.0625 505.015625 C 26.132812 501.902344 27.242188 498.796875 28.390625 495.710938 Z M 783.835938 505.832031 C 782.773438 502.738281 781.671875 499.652344 780.53125 496.582031 L 782.878906 495.710938 C 784.027344 498.796875 785.136719 501.902344 786.207031 505.015625 Z M 789.765625 524.558594 C 788.855469 521.417969 787.902344 518.28125 786.917969 515.160156 L 789.304688 514.402344 C 790.300781 517.542969 791.257812 520.699219 792.175781 523.863281 Z M 24.355469 515.160156 C 23.367188 518.28125 22.417969 521.417969 21.503906 524.558594 L 19.097656 523.863281 C 20.015625 520.699219 20.96875 517.542969 21.964844 514.402344 Z M 794.765625 543.558594 C 794.011719 540.371094 793.21875 537.195312 792.382812 534.027344 L 794.808594 533.390625 C 795.648438 536.574219 796.449219 539.773438 797.207031 542.976562 Z M 18.886719 534.027344 C 18.054688 537.195312 17.257812 540.371094 16.503906 543.558594 L 14.0625 542.976562 C 14.824219 539.773438 15.625 536.574219 16.464844 533.390625 Z M 798.835938 562.777344 C 798.234375 559.558594 797.597656 556.34375 796.917969 553.144531 L 799.371094 552.625 C 800.054688 555.847656 800.699219 559.078125 801.300781 562.316406 Z M 14.351562 553.144531 C 13.675781 556.34375 13.035156 559.558594 12.4375 562.777344 L 9.972656 562.316406 C 10.574219 559.078125 11.214844 555.847656 11.898438 552.625 Z M 801.953125 582.171875 C 801.511719 578.929688 801.03125 575.6875 800.511719 572.457031 L 802.988281 572.058594 C 803.511719 575.308594 803.996094 578.570312 804.4375 581.835938 Z M 10.757812 572.457031 C 10.238281 575.6875 9.757812 578.929688 9.316406 582.171875 L 6.832031 581.835938 C 7.277344 578.570312 7.761719 575.3125 8.28125 572.058594 Z M 804.117188 601.699219 C 803.835938 598.4375 803.515625 595.175781 803.15625 591.925781 L 805.644531 591.644531 C 806.007812 594.921875 806.332031 598.199219 806.617188 601.484375 Z M 8.117188 591.925781 C 7.757812 595.175781 7.433594 598.4375 7.15625 601.699219 L 4.65625 601.484375 C 4.9375 598.199219 5.261719 594.921875 5.625 591.644531 Z M 805.320312 621.308594 C 805.199219 618.035156 805.039062 614.761719 804.835938 611.496094 L 807.339844 611.34375 C 807.542969 614.628906 807.703125 617.921875 807.828125 621.214844 Z M 6.433594 611.496094 C 6.230469 614.761719 6.070312 618.035156 5.949219 621.308594 L 3.445312 621.214844 C 3.566406 617.921875 3.726562 614.628906 3.929688 611.34375 Z M 805.589844 636.039062 C 805.589844 634.402344 805.578125 632.765625 805.558594 631.128906 L 808.066406 631.097656 C 808.085938 632.746094 808.097656 634.390625 808.097656 636.039062 Z M 5.710938 631.128906 C 5.691406 632.765625 5.679688 634.402344 5.679688 636.039062 L 3.171875 636.039062 C 3.171875 634.390625 3.183594 632.746094 3.203125 631.097656 Z M 5.710938 631.128906 " fill-opacity="1" fill-rule="evenodd"/><g clip-path="url(#d94b6d443d)"><path fill="#ffffff" d="M 465.1875 233.273438 C 465.1875 235.246094 465.089844 237.210938 464.898438 239.175781 C 464.703125 241.140625 464.414062 243.085938 464.03125 245.023438 C 463.644531 246.957031 463.167969 248.867188 462.59375 250.753906 C 462.023438 252.644531 461.359375 254.496094 460.605469 256.320312 C 459.851562 258.144531 459.007812 259.921875 458.082031 261.664062 C 457.152344 263.402344 456.140625 265.09375 455.042969 266.734375 C 453.949219 268.371094 452.777344 269.957031 451.527344 271.480469 C 450.277344 273.003906 448.953125 274.464844 447.558594 275.859375 C 446.164062 277.253906 444.707031 278.578125 443.183594 279.828125 C 441.660156 281.078125 440.078125 282.253906 438.441406 283.347656 C 436.800781 284.445312 435.113281 285.457031 433.375 286.386719 C 431.636719 287.316406 429.855469 288.160156 428.035156 288.914062 C 426.214844 289.667969 424.359375 290.332031 422.476562 290.90625 C 420.589844 291.480469 418.679688 291.957031 416.746094 292.34375 C 414.8125 292.726562 412.867188 293.015625 410.902344 293.210938 C 408.941406 293.402344 406.976562 293.5 405.003906 293.5 C 403.035156 293.5 401.066406 293.402344 399.105469 293.210938 C 397.144531 293.015625 395.199219 292.726562 393.265625 292.34375 C 391.332031 291.957031 389.421875 291.480469 387.535156 290.90625 C 385.648438 290.332031 383.796875 289.667969 381.972656 288.914062 C 380.152344 288.160156 378.375 287.316406 376.636719 286.386719 C 374.898438 285.457031 373.207031 284.445312 371.570312 283.347656 C 369.929688 282.253906 368.351562 281.078125 366.828125 279.828125 C 365.300781 278.578125 363.84375 277.253906 362.449219 275.859375 C 361.054688 274.464844 359.734375 273.003906 358.484375 271.480469 C 357.234375 269.957031 356.0625 268.371094 354.964844 266.734375 C 353.871094 265.09375 352.859375 263.402344 351.929688 261.664062 C 351 259.921875 350.160156 258.144531 349.40625 256.320312 C 348.648438 254.496094 347.988281 252.644531 347.414062 250.753906 C 346.84375 248.867188 346.363281 246.957031 345.980469 245.023438 C 345.59375 243.085938 345.304688 241.140625 345.113281 239.175781 C 344.921875 237.210938 344.824219 235.246094 344.824219 233.273438 C 344.824219 231.300781 344.921875 229.332031 345.113281 227.371094 C 345.304688 225.40625 345.59375 223.457031 345.980469 221.523438 C 346.363281 219.589844 346.84375 217.675781 347.414062 215.789062 C 347.988281 213.902344 348.648438 212.046875 349.40625 210.226562 C 350.160156 208.402344 351 206.621094 351.929688 204.882812 C 352.859375 203.140625 353.871094 201.453125 354.964844 199.8125 C 356.0625 198.171875 357.234375 196.589844 358.484375 195.066406 C 359.734375 193.539062 361.054688 192.082031 362.449219 190.6875 C 363.84375 189.289062 365.300781 187.96875 366.828125 186.714844 C 368.351562 185.464844 369.929688 184.292969 371.570312 183.195312 C 373.207031 182.101562 374.898438 181.085938 376.636719 180.15625 C 378.375 179.226562 380.152344 178.386719 381.972656 177.628906 C 383.796875 176.875 385.648438 176.210938 387.535156 175.640625 C 389.421875 175.066406 391.332031 174.585938 393.265625 174.203125 C 395.199219 173.816406 397.144531 173.527344 399.105469 173.335938 C 401.066406 173.140625 403.035156 173.046875 405.003906 173.046875 C 406.976562 173.046875 408.941406 173.140625 410.902344 173.335938 C 412.867188 173.527344 414.8125 173.816406 416.746094 174.203125 C 418.679688 174.585938 420.589844 175.066406 422.476562 175.640625 C 424.359375 176.210938 426.214844 176.875 428.035156 177.628906 C 429.855469 178.386719 431.636719 179.226562 433.375 180.15625 C 435.113281 181.085938 436.800781 182.101562 438.441406 183.195312 C 440.078125 184.292969 441.660156 185.464844 443.183594 186.714844 C 444.707031 187.96875 446.164062 189.289062 447.558594 190.6875 C 448.953125 192.082031 450.277344 193.539062 451.527344 195.066406 C 452.777344 196.589844 453.949219 198.171875 455.042969 199.8125 C 456.140625 201.453125 457.152344 203.140625 458.082031 204.882812 C 459.007812 206.621094 459.851562 208.402344 460.605469 210.226562 C 461.359375 212.046875 462.023438 213.902344 462.59375 215.789062 C 463.167969 217.675781 463.644531 219.589844 464.03125 221.523438 C 464.414062 223.457031 464.703125 225.40625 464.898438 227.371094 C 465.089844 229.332031 465.1875 231.300781 465.1875 233.273438 Z M 465.1875 233.273438 " fill-opacity="1" fill-rule="nonzero"/></g><path stroke-linecap="round" transform="matrix(2.507559, 0, 0, 2.509459, 0.0292054, 173.045476)" fill="none" stroke-linejoin="round" d="M 161.501565 29.000207 C 165.18418 29.000207 168.167347 26.014629 168.167347 22.333245 C 168.167347 18.651862 165.18418 15.666284 161.501565 15.666284 C 157.820507 15.666284 154.835782 18.651862 154.835782 22.333245 C 154.835782 26.014629 157.820507 29.000207 161.501565 29.000207 Z M 161.501565 29.000207 L 161.501565 32.33291 M 161.501565 32.33291 L 157.334477 32.33291 M 161.501565 32.33291 L 165.668653 32.33291 M 164.001817 22.333245 C 164.001817 23.713959 162.881766 24.833162 161.501565 24.833162 C 160.121363 24.833162 159.001312 23.713959 159.001312 22.333245 C 159.001312 20.952532 160.121363 19.833329 161.501565 19.833329 C 162.881766 19.833329 164.001817 20.952532 164.001817 22.333245 Z M 164.001817 22.333245 " stroke="#7a7a7a" stroke-width="1.5" stroke-opacity="1" stroke-miterlimit="4"/></svg>