<svg xmlns="http://www.w3.org/2000/svg" xmlns:xlink="http://www.w3.org/1999/xlink" width="1080" zoomAndPan="magnify" viewBox="0 0 810 809.999993" height="1080" preserveAspectRatio="xMidYMid meet" version="1.0"><defs><clipPath id="23a0fa5743"><path d="M 344 173.046875 L 465 173.046875 L 465 294 L 344 294 Z M 344 173.046875 " clip-rule="nonzero"/></clipPath></defs><path fill="#a3a3a3" d="M 405.007812 235.78125 C 403.371094 235.78125 401.734375 235.792969 400.101562 235.8125 L 400.070312 233.304688 C 401.714844 233.28125 403.363281 233.273438 405.007812 233.273438 C 406.65625 233.273438 408.300781 233.28125 409.949219 233.304688 L 409.917969 235.8125 C 408.28125 235.792969 406.644531 235.78125 405.007812 235.78125 Z M 390.289062 236.054688 C 387.015625 236.171875 383.75 236.335938 380.484375 236.535156 L 380.328125 234.03125 C 383.613281 233.828125 386.902344 233.667969 390.195312 233.546875 Z M 429.535156 236.535156 C 426.269531 236.335938 423 236.171875 419.730469 236.054688 L 419.820312 233.546875 C 423.113281 233.667969 426.402344 233.828125 429.6875 234.03125 Z M 449.09375 238.21875 C 445.839844 237.859375 442.585938 237.539062 439.324219 237.257812 L 439.539062 234.757812 C 442.820312 235.039062 446.097656 235.363281 449.367188 235.726562 Z M 370.695312 237.257812 C 367.433594 237.539062 364.175781 237.859375 360.925781 238.21875 L 360.648438 235.726562 C 363.917969 235.363281 367.195312 235.039062 370.476562 234.757812 Z M 468.542969 240.863281 C 465.3125 240.34375 462.078125 239.863281 458.835938 239.421875 L 459.171875 236.9375 C 462.4375 237.378906 465.691406 237.863281 468.941406 238.386719 Z M 351.183594 239.421875 C 347.941406 239.863281 344.703125 240.34375 341.472656 240.863281 L 341.074219 238.386719 C 344.324219 237.863281 347.582031 237.378906 350.84375 236.9375 Z M 487.84375 244.460938 C 484.640625 243.78125 481.433594 243.144531 478.214844 242.542969 L 478.675781 240.078125 C 481.910156 240.679688 485.140625 241.324219 488.363281 242.003906 Z M 331.800781 242.542969 C 328.585938 243.144531 325.375 243.78125 322.171875 244.460938 L 321.652344 242.003906 C 324.875 241.324219 328.105469 240.679688 331.34375 240.078125 Z M 506.941406 249 C 503.777344 248.164062 500.605469 247.371094 497.421875 246.613281 L 498 244.171875 C 501.203125 244.933594 504.398438 245.734375 507.582031 246.574219 Z M 312.597656 246.613281 C 309.410156 247.371094 306.238281 248.164062 303.074219 249 L 302.433594 246.574219 C 305.617188 245.734375 308.8125 244.933594 312.015625 244.171875 Z M 525.796875 254.472656 C 522.675781 253.484375 519.546875 252.53125 516.402344 251.621094 L 517.101562 249.210938 C 520.265625 250.128906 523.414062 251.082031 526.554688 252.078125 Z M 293.613281 251.621094 C 290.472656 252.53125 287.339844 253.484375 284.21875 254.472656 L 283.460938 252.078125 C 286.601562 251.082031 289.753906 250.128906 292.914062 249.210938 Z M 544.359375 260.863281 C 541.289062 259.722656 538.210938 258.617188 535.117188 257.554688 L 535.933594 255.179688 C 539.046875 256.25 542.144531 257.363281 545.234375 258.511719 Z M 274.898438 257.554688 C 271.804688 258.617188 268.722656 259.722656 265.65625 260.863281 L 264.78125 258.511719 C 267.871094 257.363281 270.972656 256.25 274.082031 255.179688 Z M 558.0625 266.25 C 556.550781 265.625 555.039062 265.007812 553.519531 264.398438 L 554.449219 262.066406 C 555.976562 262.679688 557.503906 263.300781 559.023438 263.929688 C 560.546875 264.5625 562.0625 265.203125 563.574219 265.851562 L 562.585938 268.15625 C 561.085938 267.511719 559.574219 266.875 558.0625 266.25 Z M 256.496094 264.398438 C 254.980469 265.007812 253.464844 265.625 251.953125 266.25 C 250.441406 266.875 248.933594 267.511719 247.429688 268.15625 L 246.441406 265.851562 C 247.953125 265.203125 249.472656 264.5625 250.992188 263.929688 C 252.511719 263.300781 254.039062 262.679688 255.566406 262.066406 Z M 580.4375 276.339844 C 577.496094 274.902344 574.539062 273.503906 571.5625 272.136719 L 572.605469 269.855469 C 575.601562 271.230469 578.578125 272.636719 581.535156 274.082031 Z M 238.457031 272.136719 C 235.480469 273.503906 232.519531 274.902344 229.582031 276.339844 L 228.480469 274.082031 C 231.4375 272.636719 234.414062 271.230469 237.410156 269.855469 Z M 597.863281 285.386719 C 594.996094 283.808594 592.109375 282.261719 589.203125 280.753906 L 590.359375 278.527344 C 593.28125 280.046875 596.1875 281.597656 599.070312 283.1875 Z M 220.8125 280.753906 C 217.90625 282.261719 215.023438 283.808594 212.15625 285.386719 L 210.945312 283.1875 C 213.832031 281.597656 216.734375 280.046875 219.660156 278.527344 Z M 614.820312 295.277344 C 612.035156 293.5625 609.226562 291.878906 606.402344 290.226562 L 607.664062 288.058594 C 610.507812 289.71875 613.332031 291.414062 616.136719 293.140625 Z M 203.617188 290.226562 C 200.789062 291.878906 197.980469 293.5625 195.195312 295.277344 L 193.878906 293.140625 C 196.683594 291.414062 199.507812 289.71875 202.351562 288.058594 Z M 631.277344 305.992188 C 628.578125 304.140625 625.859375 302.320312 623.113281 300.535156 L 624.480469 298.429688 C 627.242188 300.226562 629.980469 302.058594 632.695312 303.921875 Z M 186.902344 300.535156 C 184.160156 302.320312 181.4375 304.140625 178.742188 305.992188 L 177.324219 303.921875 C 180.039062 302.058594 182.773438 300.226562 185.535156 298.429688 Z M 647.183594 317.5 C 644.582031 315.515625 641.953125 313.566406 639.300781 311.648438 L 640.769531 309.613281 C 643.4375 311.542969 646.085938 313.507812 648.703125 315.503906 Z M 170.714844 311.648438 C 168.0625 313.566406 165.4375 315.515625 162.832031 317.5 L 161.3125 315.503906 C 163.933594 313.507812 166.578125 311.542969 169.246094 309.613281 Z M 662.515625 329.777344 C 660.007812 327.667969 657.480469 325.589844 654.925781 323.542969 L 656.492188 321.585938 C 659.0625 323.644531 661.605469 325.734375 664.125 327.855469 Z M 155.09375 323.542969 C 152.539062 325.589844 150.007812 327.667969 147.503906 329.777344 L 145.890625 327.855469 C 148.410156 325.734375 150.957031 323.644531 153.527344 321.585938 Z M 677.21875 342.789062 C 674.820312 340.558594 672.394531 338.359375 669.945312 336.191406 L 671.605469 334.3125 C 674.070312 336.492188 676.511719 338.707031 678.925781 340.949219 Z M 140.070312 336.191406 C 137.621094 338.359375 135.195312 340.558594 132.796875 342.789062 L 131.089844 340.949219 C 133.503906 338.707031 135.945312 336.492188 138.410156 334.3125 Z M 687.820312 353.015625 C 686.660156 351.855469 685.496094 350.707031 684.328125 349.5625 L 686.078125 347.765625 C 687.257812 348.917969 688.429688 350.074219 689.59375 351.242188 C 690.757812 352.40625 691.914062 353.578125 693.0625 354.757812 L 691.269531 356.507812 C 690.128906 355.335938 688.976562 354.171875 687.820312 353.015625 Z M 125.6875 349.5625 C 124.519531 350.707031 123.355469 351.855469 122.195312 353.015625 C 121.039062 354.171875 119.890625 355.335938 118.75 356.507812 L 116.953125 354.757812 C 118.101562 353.578125 119.257812 352.40625 120.425781 351.242188 C 121.589844 350.074219 122.761719 348.917969 123.9375 347.765625 Z M 111.980469 363.625 C 109.75 366.023438 107.554688 368.449219 105.386719 370.902344 L 103.507812 369.242188 C 105.6875 366.773438 107.898438 364.332031 110.140625 361.917969 Z M 704.628906 370.902344 C 702.464844 368.449219 700.265625 366.023438 698.039062 363.625 L 699.875 361.917969 C 702.117188 364.332031 704.328125 366.773438 706.507812 369.242188 Z M 717.269531 385.933594 C 715.226562 383.378906 713.148438 380.847656 711.042969 378.339844 L 712.960938 376.726562 C 715.078125 379.246094 717.167969 381.796875 719.226562 384.367188 Z M 98.976562 378.339844 C 96.867188 380.847656 94.792969 383.378906 92.75 385.933594 L 90.789062 384.367188 C 92.847656 381.796875 94.9375 379.246094 97.058594 376.726562 Z M 729.15625 401.570312 C 727.238281 398.917969 725.289062 396.285156 723.308594 393.679688 L 725.304688 392.160156 C 727.296875 394.78125 729.261719 397.429688 731.1875 400.101562 Z M 86.710938 393.679688 C 84.726562 396.285156 82.777344 398.917969 80.863281 401.570312 L 78.828125 400.101562 C 80.757812 397.429688 82.71875 394.78125 84.714844 392.160156 Z M 740.261719 417.769531 C 738.476562 415.023438 736.660156 412.300781 734.808594 409.601562 L 736.875 408.183594 C 738.738281 410.898438 740.566406 413.640625 742.363281 416.402344 Z M 75.210938 409.601562 C 73.359375 412.300781 71.539062 415.023438 69.757812 417.769531 L 67.652344 416.402344 C 69.449219 413.640625 71.277344 410.898438 73.140625 408.183594 Z M 750.558594 434.496094 C 748.910156 431.664062 747.230469 428.855469 745.515625 426.070312 L 747.648438 424.75 C 749.375 427.558594 751.066406 430.382812 752.726562 433.230469 Z M 64.503906 426.070312 C 62.789062 428.855469 61.105469 431.664062 59.457031 434.496094 L 57.292969 433.230469 C 58.949219 430.382812 60.640625 427.558594 62.371094 424.75 Z M 760.023438 451.707031 C 758.519531 448.796875 756.976562 445.910156 755.398438 443.042969 L 757.59375 441.832031 C 759.183594 444.71875 760.734375 447.625 762.25 450.550781 Z M 54.621094 443.042969 C 53.042969 445.910156 51.5 448.796875 49.992188 451.707031 L 47.765625 450.550781 C 49.28125 447.625 50.835938 444.71875 52.421875 441.832031 Z M 768.636719 469.359375 C 767.273438 466.382812 765.871094 463.421875 764.4375 460.480469 L 766.691406 459.378906 C 768.132812 462.339844 769.542969 465.320312 770.914062 468.316406 Z M 45.578125 460.480469 C 44.144531 463.421875 42.746094 466.382812 41.382812 469.359375 L 39.101562 468.316406 C 40.472656 465.320312 41.882812 462.339844 43.324219 459.378906 Z M 37.402344 478.339844 C 36.757812 479.847656 36.125 481.355469 35.496094 482.867188 C 34.871094 484.382812 34.253906 485.898438 33.648438 487.417969 L 31.320312 486.488281 C 31.929688 484.957031 32.550781 483.429688 33.179688 481.90625 C 33.8125 480.386719 34.449219 478.867188 35.097656 477.351562 Z M 774.519531 482.867188 C 773.890625 481.355469 773.257812 479.847656 772.613281 478.339844 L 774.917969 477.351562 C 775.566406 478.867188 776.207031 480.386719 776.835938 481.90625 C 777.464844 483.429688 778.085938 484.957031 778.699219 486.488281 L 776.371094 487.417969 C 775.761719 485.898438 775.144531 484.382812 774.519531 482.867188 Z M 30.113281 496.582031 C 28.972656 499.652344 27.871094 502.738281 26.808594 505.832031 L 24.4375 505.015625 C 25.507812 501.902344 26.617188 498.796875 27.765625 495.710938 Z M 783.210938 505.832031 C 782.148438 502.738281 781.042969 499.652344 779.902344 496.582031 L 782.253906 495.710938 C 783.402344 498.796875 784.507812 501.902344 785.578125 505.015625 Z M 789.136719 524.558594 C 788.226562 521.417969 787.277344 518.28125 786.289062 515.160156 L 788.679688 514.402344 C 789.675781 517.542969 790.628906 520.699219 791.546875 523.863281 Z M 23.726562 515.160156 C 22.738281 518.28125 21.789062 521.417969 20.878906 524.558594 L 18.46875 523.863281 C 19.386719 520.699219 20.34375 517.542969 21.335938 514.402344 Z M 794.140625 543.558594 C 793.386719 540.371094 792.589844 537.195312 791.753906 534.027344 L 794.179688 533.390625 C 795.019531 536.574219 795.820312 539.773438 796.582031 542.976562 Z M 18.261719 534.027344 C 17.425781 537.195312 16.632812 540.371094 15.875 543.558594 L 13.4375 542.976562 C 14.195312 539.773438 14.996094 536.574219 15.835938 533.390625 Z M 798.207031 562.777344 C 797.609375 559.558594 796.96875 556.34375 796.292969 553.144531 L 798.746094 552.625 C 799.425781 555.847656 800.070312 559.078125 800.671875 562.316406 Z M 13.726562 553.144531 C 13.046875 556.34375 12.410156 559.558594 11.808594 562.777344 L 9.34375 562.316406 C 9.949219 559.078125 10.589844 555.847656 11.273438 552.625 Z M 801.324219 582.171875 C 800.886719 578.929688 800.40625 575.6875 799.886719 572.457031 L 802.359375 572.058594 C 802.882812 575.308594 803.367188 578.570312 803.808594 581.835938 Z M 10.132812 572.457031 C 9.613281 575.6875 9.132812 578.929688 8.691406 582.171875 L 6.207031 581.835938 C 6.648438 578.570312 7.132812 575.3125 7.65625 572.058594 Z M 803.488281 601.699219 C 803.207031 598.4375 802.886719 595.175781 802.527344 591.925781 L 805.019531 591.644531 C 805.382812 594.921875 805.707031 598.199219 805.988281 601.484375 Z M 7.488281 591.925781 C 7.128906 595.175781 6.808594 598.4375 6.527344 601.699219 L 4.03125 601.484375 C 4.3125 598.199219 4.632812 594.921875 4.996094 591.644531 Z M 804.691406 621.308594 C 804.570312 618.035156 804.410156 614.761719 804.210938 611.496094 L 806.714844 611.34375 C 806.917969 614.628906 807.078125 617.921875 807.199219 621.214844 Z M 5.804688 611.496094 C 5.605469 614.761719 5.445312 618.035156 5.324219 621.308594 L 2.816406 621.214844 C 2.9375 617.921875 3.101562 614.628906 3.300781 611.34375 Z M 804.964844 636.039062 C 804.964844 634.402344 804.953125 632.765625 804.933594 631.128906 L 807.441406 631.097656 C 807.460938 632.746094 807.46875 634.390625 807.46875 636.039062 Z M 5.082031 631.128906 C 5.0625 632.765625 5.054688 634.402344 5.054688 636.039062 L 2.546875 636.039062 C 2.546875 634.390625 2.554688 632.746094 2.574219 631.097656 Z M 5.082031 631.128906 " fill-opacity="1" fill-rule="evenodd"/><g clip-path="url(#23a0fa5743)"><path fill="#ffffff" d="M 464.558594 233.273438 C 464.558594 235.246094 464.464844 237.210938 464.269531 239.175781 C 464.078125 241.140625 463.789062 243.085938 463.402344 245.023438 C 463.019531 246.957031 462.539062 248.867188 461.96875 250.753906 C 461.394531 252.644531 460.734375 254.496094 459.976562 256.320312 C 459.222656 258.144531 458.382812 259.921875 457.453125 261.664062 C 456.523438 263.402344 455.511719 265.09375 454.417969 266.734375 C 453.320312 268.371094 452.148438 269.957031 450.898438 271.480469 C 449.648438 273.003906 448.328125 274.464844 446.933594 275.859375 C 445.539062 277.253906 444.082031 278.578125 442.558594 279.828125 C 441.03125 281.078125 439.453125 282.253906 437.8125 283.347656 C 436.175781 284.445312 434.484375 285.457031 432.746094 286.386719 C 431.007812 287.316406 429.230469 288.160156 427.410156 288.914062 C 425.585938 289.667969 423.734375 290.332031 421.847656 290.90625 C 419.960938 291.480469 418.050781 291.957031 416.117188 292.34375 C 414.1875 292.726562 412.238281 293.015625 410.277344 293.210938 C 408.316406 293.402344 406.347656 293.5 404.378906 293.5 C 402.40625 293.5 400.441406 293.402344 398.480469 293.210938 C 396.519531 293.015625 394.570312 292.726562 392.636719 292.34375 C 390.703125 291.957031 388.792969 291.480469 386.910156 290.90625 C 385.023438 290.332031 383.167969 289.667969 381.347656 288.914062 C 379.527344 288.160156 377.746094 287.316406 376.007812 286.386719 C 374.269531 285.457031 372.582031 284.445312 370.941406 283.347656 C 369.304688 282.253906 367.722656 281.078125 366.199219 279.828125 C 364.675781 278.578125 363.21875 277.253906 361.824219 275.859375 C 360.429688 274.464844 359.109375 273.003906 357.855469 271.480469 C 356.605469 269.957031 355.433594 268.371094 354.339844 266.734375 C 353.242188 265.09375 352.230469 263.402344 351.304688 261.664062 C 350.375 259.921875 349.53125 258.144531 348.777344 256.320312 C 348.023438 254.496094 347.359375 252.644531 346.789062 250.753906 C 346.214844 248.867188 345.738281 246.957031 345.351562 245.023438 C 344.96875 243.085938 344.679688 241.140625 344.488281 239.175781 C 344.292969 237.210938 344.195312 235.246094 344.195312 233.273438 C 344.195312 231.300781 344.292969 229.332031 344.488281 227.371094 C 344.679688 225.40625 344.96875 223.457031 345.351562 221.523438 C 345.738281 219.589844 346.214844 217.675781 346.789062 215.789062 C 347.359375 213.902344 348.023438 212.046875 348.777344 210.226562 C 349.53125 208.402344 350.375 206.621094 351.304688 204.882812 C 352.230469 203.140625 353.242188 201.453125 354.339844 199.8125 C 355.433594 198.171875 356.605469 196.589844 357.855469 195.066406 C 359.109375 193.539062 360.429688 192.082031 361.824219 190.6875 C 363.21875 189.289062 364.675781 187.96875 366.199219 186.714844 C 367.722656 185.464844 369.304688 184.292969 370.941406 183.195312 C 372.582031 182.101562 374.269531 181.085938 376.007812 180.15625 C 377.746094 179.226562 379.527344 178.386719 381.347656 177.628906 C 383.167969 176.875 385.023438 176.210938 386.910156 175.640625 C 388.792969 175.066406 390.703125 174.585938 392.636719 174.203125 C 394.570312 173.816406 396.519531 173.527344 398.480469 173.335938 C 400.441406 173.140625 402.40625 173.046875 404.378906 173.046875 C 406.347656 173.046875 408.316406 173.140625 410.277344 173.335938 C 412.238281 173.527344 414.1875 173.816406 416.117188 174.203125 C 418.050781 174.585938 419.960938 175.066406 421.847656 175.640625 C 423.734375 176.210938 425.585938 176.875 427.410156 177.628906 C 429.230469 178.386719 431.007812 179.226562 432.746094 180.15625 C 434.484375 181.085938 436.175781 182.101562 437.8125 183.195312 C 439.453125 184.292969 441.03125 185.464844 442.558594 186.714844 C 444.082031 187.96875 445.539062 189.289062 446.933594 190.6875 C 448.328125 192.082031 449.648438 193.539062 450.898438 195.066406 C 452.148438 196.589844 453.320312 198.171875 454.417969 199.8125 C 455.511719 201.453125 456.523438 203.140625 457.453125 204.882812 C 458.382812 206.621094 459.222656 208.402344 459.976562 210.226562 C 460.734375 212.046875 461.394531 213.902344 461.96875 215.789062 C 462.539062 217.675781 463.019531 219.589844 463.402344 221.523438 C 463.789062 223.457031 464.078125 225.40625 464.269531 227.371094 C 464.464844 229.332031 464.558594 231.300781 464.558594 233.273438 Z M 464.558594 233.273438 " fill-opacity="1" fill-rule="nonzero"/></g><path stroke-linecap="round" transform="matrix(2.507559, 0, 0, 2.509459, 1.282985, 173.045476)" fill="none" stroke-linejoin="round" d="M 158.252066 29.417379 L 163.252571 29.417379 M 156.251863 15.666284 L 165.252773 15.666284 C 165.718552 15.666284 165.952221 15.666284 166.129809 15.758124 C 166.287146 15.837511 166.413327 15.965153 166.494332 16.12237 C 166.584684 16.299824 166.584684 16.533315 166.584684 17.000299 L 166.584684 18.728136 C 166.584684 19.135968 166.584684 19.339884 166.539508 19.531347 C 166.497447 19.702574 166.430462 19.864462 166.340111 20.013896 C 166.235739 20.18201 166.092422 20.326775 165.804231 20.614748 L 163.361616 23.057069 C 163.031365 23.387071 162.866239 23.552071 162.803928 23.741978 C 162.749405 23.910092 162.749405 24.090659 162.803928 24.257216 C 162.866239 24.448679 163.031365 24.612123 163.361616 24.942124 L 165.804231 27.386003 C 166.092422 27.673975 166.235739 27.81874 166.340111 27.986854 C 166.430462 28.134732 166.497447 28.298176 166.539508 28.467847 C 166.584684 28.65931 166.584684 28.863226 166.584684 29.271058 L 166.584684 31.000452 C 166.584684 31.467435 166.584684 31.69937 166.494332 31.87838 C 166.413327 32.035598 166.287146 32.16324 166.129809 32.242627 C 165.952221 32.33291 165.718552 32.33291 165.252773 32.33291 L 156.251863 32.33291 C 155.784526 32.33291 155.552416 32.33291 155.37327 32.242627 C 155.217491 32.16324 155.089752 32.035598 155.008747 31.87838 C 154.918395 31.69937 154.918395 31.467435 154.918395 31.000452 L 154.918395 29.271058 C 154.918395 28.863226 154.918395 28.65931 154.965129 28.467847 C 155.005631 28.298176 155.072616 28.134732 155.164526 27.986854 C 155.26734 27.81874 155.410657 27.673975 155.700406 27.386003 L 158.141462 24.942124 C 158.471714 24.612123 158.63684 24.448679 158.699151 24.257216 C 158.753674 24.090659 158.753674 23.910092 158.699151 23.741978 C 158.63684 23.552071 158.471714 23.387071 158.141462 23.057069 L 155.700406 20.614748 C 155.410657 20.326775 155.26734 20.18201 155.164526 20.013896 C 155.072616 19.864462 155.005631 19.702574 154.965129 19.531347 C 154.918395 19.339884 154.918395 19.135968 154.918395 18.728136 L 154.918395 17.000299 C 154.918395 16.533315 154.918395 16.299824 155.008747 16.12237 C 155.089752 15.965153 155.217491 15.837511 155.37327 15.758124 C 155.552416 15.666284 155.784526 15.666284 156.251863 15.666284 Z M 156.251863 15.666284 " stroke="#7a7a7a" stroke-width="1.5" stroke-opacity="1" stroke-miterlimit="4"/></svg>