<!DOCTYPE svg PUBLIC "-//W3C//DTD SVG 1.1//EN" "http://www.w3.org/Graphics/SVG/1.1/DTD/svg11.dtd">
<!-- Uploaded to: SVG Repo, www.svgrepo.com, Transformed by: SVG Repo Mixer Tools -->
<svg width="800px" height="800px" viewBox="0 0 24 24" xmlns="http://www.w3.org/2000/svg" fill="#9381ff">
<g id="SVGRepo_bgCarrier" stroke-width="0"/>
<g id="SVGRepo_tracerCarrier" stroke-linecap="round" stroke-linejoin="round"/>
<g id="SVGRepo_iconCarrier"> <g> <path fill="none" d="M0 0h24v24H0z"/> <path d="M8.498 20h7.004A6.523 6.523 0 0 1 12 23.502 6.523 6.523 0 0 1 8.498 20zM18 14.805l2 2.268V19H4v-1.927l2-2.268V9c0-3.483 2.504-6.447 6-7.545C15.496 2.553 18 5.517 18 9v5.805zM12 11a2 2 0 1 0 0-4 2 2 0 0 0 0 4z"/> </g> </g>
</svg>