<svg xmlns="http://www.w3.org/2000/svg" xmlns:xlink="http://www.w3.org/1999/xlink" width="500" zoomAndPan="magnify" viewBox="0 0 375 374.999991" height="500" preserveAspectRatio="xMidYMid meet" version="1.0"><defs><g/><clipPath id="1d4fd26ed7"><path d="M 4.390625 4.390625 L 370.390625 4.390625 L 370.390625 370.390625 L 4.390625 370.390625 Z M 4.390625 4.390625 " clip-rule="nonzero"/></clipPath></defs><g clip-path="url(#1d4fd26ed7)"><path fill="#ffffff" d="M 4.390625 187.5 C 4.390625 86.371094 86.371094 4.390625 187.5 4.390625 C 288.625 4.390625 370.605469 86.371094 370.605469 187.5 C 370.605469 288.625 288.625 370.605469 187.5 370.605469 C 86.371094 370.605469 4.390625 288.625 4.390625 187.5 " fill-opacity="1" fill-rule="nonzero"/></g><path fill="#35d6b3" d="M 185.671875 282.042969 C 142.933594 282.042969 104.242188 257.796875 84.691406 218.765625 C 81.574219 212.539062 84.09375 204.964844 90.316406 201.847656 C 96.542969 198.726562 104.117188 201.246094 107.238281 207.472656 C 122.484375 237.914062 152.539062 256.828125 185.671875 256.828125 C 218.800781 256.828125 248.855469 237.914062 264.105469 207.472656 C 267.222656 201.246094 274.796875 198.730469 281.023438 201.847656 C 287.25 204.964844 289.769531 212.539062 286.648438 218.765625 C 267.101562 257.796875 228.40625 282.042969 185.671875 282.042969 " fill-opacity="1" fill-rule="nonzero"/><path fill="#35d6b3" d="M 108.394531 124.4375 C 108.394531 107.050781 116 92.953125 125.382812 92.953125 C 134.761719 92.953125 142.367188 107.050781 142.367188 124.4375 C 142.367188 141.824219 134.761719 155.921875 125.382812 155.921875 C 116 155.921875 108.394531 141.824219 108.394531 124.4375 " fill-opacity="1" fill-rule="nonzero"/><path fill="#35d6b3" d="M 226.878906 124.4375 C 226.878906 107.050781 234.480469 92.953125 243.863281 92.953125 C 253.242188 92.953125 260.847656 107.050781 260.847656 124.4375 C 260.847656 141.824219 253.242188 155.921875 243.863281 155.921875 C 234.480469 155.921875 226.878906 141.824219 226.878906 124.4375 " fill-opacity="1" fill-rule="nonzero"/><g fill="#35d6b3" fill-opacity="1"><g transform="translate(370.609931, 38.75)"><g><path d="M 27.40625 0 L 21.46875 0 L 19.3125 -6.578125 L 8.375 -6.578125 L 6.234375 0 L 0.4375 0 L 10.296875 -28.5625 L 17.546875 -28.5625 Z M 13.578125 -22.59375 L 9.90625 -11.328125 L 17.75 -11.328125 L 14.0625 -22.59375 Z M 13.578125 -22.59375 "/></g></g></g></svg>