<svg width="306" height="104" viewBox="0 0 306 104" fill="none" xmlns="http://www.w3.org/2000/svg">
<path d="M27.0253 60.1707L27.8933 55.8927H35.5193V100.161H26.7773V83.6687C24.6693 86.2727 21.5693 88.1327 17.1673 88.1327C8.67328 88.1327 2.41128 81.9947 2.41128 71.8887C2.41128 62.0307 8.67328 55.4587 17.2293 55.5207C21.7553 55.5207 24.9793 57.4427 27.0253 60.1707ZM19.1513 81.0027C23.9253 81.0027 26.9013 77.2207 26.9013 71.8267C26.9013 66.3707 23.9253 62.6507 19.1513 62.6507C14.3773 62.6507 11.3393 66.3707 11.3393 71.7647C11.3393 77.2207 14.3773 81.0027 19.1513 81.0027ZM62.8802 71.8267V55.8927H71.6222V87.7607H63.8722L63.0662 83.9167C61.0202 86.3967 58.2302 88.1327 53.7042 88.1327C47.1322 88.1327 41.0562 84.8467 41.0562 73.5627V55.8927H49.7982V72.3847C49.7982 78.0887 51.6582 80.8787 55.9982 80.8787C60.3382 80.8787 62.8802 77.7167 62.8802 71.8267ZM108.08 80.3827H109.072V87.7607H104.608C100.082 87.7607 98.6561 85.5907 98.7181 82.5527C96.4861 86.0867 93.2621 88.1327 88.3021 88.1327C81.4201 88.1327 76.4601 84.8467 76.4601 78.7707C76.4601 72.0127 81.5441 68.1687 91.0921 68.1687H97.4161V66.6187C97.4161 63.7667 95.3701 61.9067 91.7121 61.9067C88.3021 61.9067 86.0081 63.4567 85.6361 65.8127H77.2041C77.8241 59.6127 83.5281 55.5207 91.9601 55.5207C100.888 55.5207 106.034 59.4887 106.034 67.1147V78.3987C106.034 80.0727 106.716 80.3827 108.08 80.3827ZM97.4161 74.6167V73.9967H91.0301C87.3721 73.9967 85.2641 75.4847 85.2641 78.1507C85.2641 80.3827 87.0621 81.8087 89.9761 81.8087C94.5641 81.8087 97.3541 78.9567 97.4161 74.6167ZM130.744 55.5207C137.626 55.5207 143.516 59.1787 143.516 70.0907V87.7607H134.774V70.9587C134.774 65.5647 132.728 62.7127 128.326 62.7127C123.8 62.7127 121.196 65.9367 121.196 71.4547V87.7607H112.454V55.8927H120.08L120.886 59.8607C122.932 57.3807 125.846 55.5207 130.744 55.5207ZM151.318 78.6467V63.2707H146.048V55.8927H151.318V46.9647H160.06V55.8927H167.376V63.2707H160.06V77.2207C160.06 79.4527 160.928 80.3827 163.222 80.3827H167.562V87.7607H160.432C154.356 87.7607 151.318 84.7227 151.318 78.6467ZM201.807 80.3827H202.799V87.7607H198.335C193.809 87.7607 192.383 85.5907 192.445 82.5527C190.213 86.0867 186.989 88.1327 182.029 88.1327C175.147 88.1327 170.187 84.8467 170.187 78.7707C170.187 72.0127 175.271 68.1687 184.819 68.1687H191.143V66.6187C191.143 63.7667 189.097 61.9067 185.439 61.9067C182.029 61.9067 179.735 63.4567 179.363 65.8127H170.931C171.551 59.6127 177.255 55.5207 185.687 55.5207C194.615 55.5207 199.761 59.4887 199.761 67.1147V78.3987C199.761 80.0727 200.443 80.3827 201.807 80.3827ZM191.143 74.6167V73.9967H184.757C181.099 73.9967 178.991 75.4847 178.991 78.1507C178.991 80.3827 180.789 81.8087 183.703 81.8087C188.291 81.8087 191.081 78.9567 191.143 74.6167ZM203.205 63.2707V55.8927H208.475V53.5367C208.475 47.6467 211.637 44.3607 218.085 44.3607H225.215V51.8007H219.635C217.899 51.8007 217.031 52.6067 217.031 54.4047V55.8927H225.215V63.2707H217.217V87.7607H208.475V63.2707H203.205ZM232.924 52.4827C230.072 52.4827 227.84 50.3747 227.84 47.5847C227.84 44.7327 230.072 42.6247 232.924 42.6247C235.776 42.6247 238.008 44.7327 238.008 47.5847C238.008 50.3747 235.776 52.4827 232.924 52.4827ZM228.522 87.7607V55.8927H237.326V87.7607H228.522ZM243.356 87.7607V44.3607H252.098V87.7607H243.356ZM273.938 88.1327C263.336 88.1327 256.95 81.7467 256.95 71.8887C256.95 61.9687 263.46 55.5207 273.318 55.5207C282.866 55.5207 289.314 61.4727 289.438 70.8347C289.438 71.7647 289.376 72.8187 289.19 73.8107H266.064V74.2447C266.25 78.7707 269.164 81.4987 273.566 81.4987C277.1 81.4987 279.58 79.9487 280.324 76.9727H288.942C287.95 83.1727 282.432 88.1327 273.938 88.1327ZM266.25 68.1067H280.634C280.014 64.2007 277.348 62.0307 273.38 62.0307C269.598 62.0307 266.746 64.3247 266.25 68.1067ZM291.84 82.9867C291.84 79.9487 294.072 77.7787 297.11 77.7787C300.086 77.7787 302.38 79.9487 302.38 82.9867C302.38 85.9627 300.086 88.1327 297.11 88.1327C294.072 88.1327 291.84 85.9627 291.84 82.9867Z" fill="#101012"/>
<path d="M41.1133 56.0054C41.0764 50.8504 42.7099 45.2643 44.6589 40.5004C46.6079 35.7365 49.4828 31.41 53.1176 27.7708C56.7524 24.1315 61.075 21.2516 65.8359 19.2973C70.5967 17.3431 75.7015 16.3532 80.8554 16.3848C86.0093 16.4165 91.1102 17.469 95.8636 19.4817C100.617 21.4944 104.928 24.4274 108.549 28.1112C112.17 31.795 115.029 36.1567 116.959 40.9444C118.89 45.7322 120.17 50.851 120.113 56.0054L112.424 56.0054C112.468 51.9451 110.801 47.7868 109.28 44.0154C107.759 40.2439 105.508 36.808 102.655 33.9061C99.803 31.0042 96.4066 28.6938 92.6622 27.1083C88.9178 25.5228 84.8996 24.6937 80.8397 24.6688C76.7797 24.6438 72.7585 25.4236 69.0082 26.9631C65.2578 28.5025 61.8527 30.7711 58.9895 33.6379C56.1262 36.5047 53.8615 39.9129 52.3262 43.6656C50.7909 47.4183 49.8034 51.9446 49.8325 56.0054L41.1133 56.0054Z" fill="#B2FC1D"/>
</svg>
