<!DOCTYPE svg PUBLIC "-//W3C//DTD SVG 1.1//EN" "http://www.w3.org/Graphics/SVG/1.1/DTD/svg11.dtd">
<!-- Uploaded to: SVG Repo, www.svgrepo.com, Transformed by: SVG Repo Mixer Tools -->
<svg width="800px" height="800px" viewBox="0 0 24 24" fill="none" xmlns="http://www.w3.org/2000/svg">
<g id="SVGRepo_bgCarrier" stroke-width="0"/>
<g id="SVGRepo_tracerCarrier" stroke-linecap="round" stroke-linejoin="round"/>
<g id="SVGRepo_iconCarrier"> <path fill-rule="evenodd" clip-rule="evenodd" d="M12 3C7.56777 3 4 6.70292 4 11.2389C4 13.4908 4.87829 15.9032 6.28347 17.757C7.68543 19.6066 9.69437 21 12 21C14.3056 21 16.3146 19.6066 17.7165 17.757C19.1217 15.9032 20 13.4908 20 11.2389C20 6.70292 16.4322 3 12 3ZM9.16571 10.6154C9.16571 9.035 10.4347 7.75385 12 7.75385C13.5653 7.75385 14.8343 9.035 14.8343 10.6154C14.8343 12.1958 13.5653 13.4769 12 13.4769C10.4347 13.4769 9.16571 12.1958 9.16571 10.6154ZM12 8.86154C11.0406 8.86154 10.2629 9.64676 10.2629 10.6154C10.2629 11.584 11.0406 12.3692 12 12.3692C12.9594 12.3692 13.7371 11.584 13.7371 10.6154C13.7371 9.64676 12.9594 8.86154 12 8.86154Z" fill="#ffffff"/> </g>
</svg>